<svg id="icon-logo-bbm" viewBox="0 0 90 32">
<path fill="#000" style="fill: var(--color3, #000)" d="M4.965 7.111c-0.534 0-0.968 0.138-1.301 0.412-0.335 0.278-0.591 0.675-0.769 1.197v4.868c0.237 0.12 0.493 0.201 0.769 0.246 0.274 0.045 0.567 0.067 0.879 0.067 0.786 0 1.383-0.286 1.791-0.861 0.407-0.572 0.611-1.485 0.611-2.736 0-2.129-0.659-3.193-1.98-3.193v0zM0.002 0.453h2.892v5.361h0.090c0.311-0.356 0.713-0.64 1.202-0.849 0.49-0.207 1.031-0.312 1.624-0.312 1.335 0 2.355 0.457 3.060 1.375 0.704 0.916 1.057 2.312 1.057 4.188 0 2.010-0.494 3.537-1.48 4.579-0.987 1.044-2.34 1.563-4.062 1.563-0.95 0-1.818-0.078-2.604-0.236-0.787-0.154-1.38-0.329-1.78-0.524v-15.145z"></path>
<path fill="#000" style="fill: var(--color3, #000)" d="M84.49 7.003c0.534 0 0.967 0.138 1.301 0.412 0.335 0.278 0.591 0.675 0.769 1.197v4.868c-0.237 0.12-0.493 0.201-0.769 0.246-0.274 0.045-0.567 0.067-0.879 0.067-0.787 0-1.383-0.286-1.792-0.861-0.407-0.572-0.611-1.485-0.611-2.736 0-2.129 0.659-3.193 1.981-3.193v0zM89.453 0.345h-2.892v5.361h-0.090c-0.311-0.356-0.713-0.64-1.202-0.849-0.49-0.207-1.031-0.312-1.624-0.312-1.335 0-2.356 0.457-3.060 1.375-0.705 0.916-1.057 2.312-1.057 4.188 0 2.010 0.494 3.537 1.481 4.579 0.987 1.044 2.34 1.563 4.062 1.563 0.95 0 1.817-0.078 2.605-0.236 0.785-0.154 1.38-0.329 1.779-0.524v-15.145z"></path>
<path fill="#000" style="fill: var(--color3, #000)" d="M18.176 7.539c-0.46-0.164-0.876-0.245-1.246-0.245-0.519 0-0.953 0.138-1.301 0.413-0.35 0.276-0.583 0.629-0.702 1.061v7.216h-2.892v-11.169h2.248l0.334 1.473h0.089c0.252-0.549 0.594-0.975 1.024-1.273 0.43-0.297 0.934-0.444 1.513-0.444 0.386 0 0.824 0.081 1.314 0.245l-0.378 2.725z"></path>
<path fill="#000" style="fill: var(--color3, #000)" d="M24.608 6.824c-0.757 0-1.317 0.226-1.68 0.68-0.364 0.455-0.583 1.062-0.657 1.822h4.14c0.059-0.803-0.063-1.421-0.368-1.854-0.304-0.431-0.782-0.647-1.435-0.647v0zM28.746 15.022c-0.446 0.359-1.049 0.659-1.813 0.905s-1.577 0.37-2.437 0.37c-1.795 0-3.108-0.526-3.939-1.577-0.831-1.049-1.247-2.49-1.247-4.322 0-1.966 0.468-3.441 1.403-4.422 0.935-0.983 2.248-1.474 3.939-1.474 0.564 0 1.114 0.075 1.648 0.223 0.533 0.149 1.008 0.394 1.424 0.736 0.414 0.343 0.749 0.803 1.002 1.386 0.252 0.578 0.378 1.303 0.378 2.166 0 0.312-0.019 0.647-0.056 1.005-0.037 0.356-0.093 0.731-0.167 1.116h-6.676c0.045 0.939 0.286 1.648 0.724 2.123 0.437 0.477 1.146 0.715 2.125 0.715 0.608 0 1.153-0.093 1.636-0.28 0.482-0.185 0.848-0.376 1.102-0.568l0.956 1.898z"></path>
<path fill="#000" style="fill: var(--color3, #000)" d="M31.396 4.814h2.894v11.171h-2.894z"></path>
<path fill="#000" style="fill: var(--color3, #000)" d="M35.98 4.814h1.535v-2.1l2.892-0.826v2.926h2.716v2.456h-2.716v4.291c0 0.774 0.078 1.329 0.234 1.664s0.448 0.502 0.88 0.502c0.296 0 0.551-0.030 0.766-0.089 0.216-0.060 0.457-0.148 0.724-0.269l0.511 2.235c-0.4 0.192-0.868 0.355-1.401 0.491-0.535 0.135-1.076 0.201-1.625 0.201-1.023 0-1.777-0.265-2.259-0.792-0.483-0.53-0.723-1.398-0.723-2.605v-5.629h-1.535v-2.456z"></path>
<path fill="#000" style="fill: var(--color3, #000)" d="M49.867 7.003c-0.535 0-0.968 0.138-1.303 0.412-0.334 0.278-0.59 0.675-0.768 1.197v4.868c0.237 0.12 0.493 0.201 0.768 0.246s0.568 0.067 0.88 0.067c0.785 0 1.382-0.286 1.791-0.861 0.407-0.572 0.611-1.485 0.611-2.736 0-2.129-0.659-3.193-1.979-3.193v0zM44.904 0.345h2.893v5.361h0.090c0.311-0.356 0.711-0.64 1.201-0.849 0.49-0.207 1.031-0.312 1.624-0.312 1.335 0 2.355 0.457 3.060 1.375 0.705 0.916 1.057 2.312 1.057 4.188 0 2.010-0.494 3.537-1.48 4.579-0.987 1.044-2.34 1.563-4.061 1.563-0.95 0-1.818-0.078-2.605-0.236-0.786-0.154-1.38-0.329-1.78-0.524v-15.145z"></path>
<path fill="#000" style="fill: var(--color3, #000)" d="M60.437 13.771c0.579 0 1.038-0.129 1.379-0.392 0.341-0.259 0.594-0.538 0.758-0.838v-1.451c-0.46-0.045-0.902-0.052-1.325-0.024-0.422 0.031-0.798 0.098-1.124 0.202s-0.586 0.253-0.779 0.448c-0.193 0.192-0.289 0.438-0.289 0.735 0 0.419 0.123 0.742 0.367 0.973 0.245 0.23 0.583 0.346 1.013 0.346v0zM56.766 5.461c0.593-0.266 1.297-0.48 2.114-0.636 0.815-0.156 1.669-0.234 2.559-0.234 0.772 0 1.418 0.091 1.936 0.278 0.52 0.187 0.931 0.45 1.236 0.794 0.304 0.342 0.519 0.751 0.645 1.23 0.127 0.476 0.189 1.011 0.189 1.606 0 0.656-0.022 1.315-0.066 1.978s-0.071 1.315-0.078 1.955c-0.008 0.64 0.011 1.262 0.056 1.867 0.044 0.603 0.156 1.172 0.334 1.706h-2.359l-0.468-1.541h-0.111c-0.297 0.461-0.709 0.859-1.235 1.196-0.526 0.335-1.205 0.503-2.036 0.503-0.52 0-0.987-0.080-1.402-0.235s-0.772-0.379-1.069-0.671c-0.296-0.289-0.527-0.632-0.69-1.026s-0.245-0.84-0.245-1.331c0-0.685 0.152-1.26 0.456-1.73 0.303-0.469 0.742-0.85 1.312-1.139 0.571-0.291 1.254-0.491 2.047-0.603s1.681-0.146 2.66-0.1c0.105-0.835 0.044-1.433-0.178-1.798s-0.72-0.549-1.492-0.549c-0.579 0-1.191 0.061-1.836 0.18s-1.176 0.275-1.591 0.469l-0.689-2.167z"></path>
<path fill="#000" style="fill: var(--color3, #000)" d="M74.68 15.983v-6.345c0-0.909-0.129-1.563-0.39-1.965-0.26-0.404-0.7-0.603-1.324-0.603-0.549 0-1.012 0.16-1.391 0.479-0.378 0.32-0.648 0.717-0.812 1.194v7.24h-2.893v-11.17h2.292l0.334 1.474h0.088c0.342-0.477 0.794-0.893 1.356-1.251 0.566-0.358 1.292-0.536 2.182-0.536 0.549 0 1.039 0.075 1.469 0.223s0.794 0.394 1.091 0.736c0.297 0.343 0.518 0.809 0.667 1.397s0.223 1.314 0.223 2.177v6.949h-2.893z"></path>
<path fill="#000" style="fill: var(--color3, #000)" d="M10.462 28.333v-4.188c0-0.394-0.018-0.738-0.052-1.028s-0.102-0.536-0.199-0.733c-0.099-0.197-0.241-0.345-0.423-0.443-0.184-0.099-0.424-0.149-0.721-0.149-0.454 0-0.831 0.139-1.134 0.415-0.301 0.276-0.511 0.622-0.63 1.035v5.090h-1.186v-7.398h0.83l0.222 0.901h0.060c0.266-0.314 0.575-0.575 0.927-0.776 0.351-0.203 0.807-0.304 1.371-0.304 0.476 0 0.863 0.092 1.165 0.275 0.302 0.182 0.536 0.501 0.704 0.953 0.227-0.384 0.541-0.685 0.941-0.902 0.402-0.216 0.854-0.326 1.357-0.326 0.416 0 0.767 0.047 1.054 0.141 0.285 0.093 0.524 0.258 0.711 0.496 0.187 0.235 0.324 0.557 0.408 0.96 0.083 0.405 0.127 0.917 0.127 1.54v4.439h-1.187v-4.454c0-0.355-0.019-0.663-0.052-0.925-0.035-0.261-0.103-0.478-0.208-0.652-0.103-0.172-0.248-0.3-0.43-0.383-0.184-0.085-0.424-0.127-0.72-0.127-0.495 0-0.882 0.139-1.157 0.415-0.277 0.276-0.475 0.67-0.594 1.183v4.943h-1.186z"></path>
<path fill="#000" style="fill: var(--color3, #000)" d="M21.021 21.793c-0.583 0-1.051 0.154-1.401 0.459s-0.562 0.829-0.63 1.569h3.678c0-0.751-0.142-1.275-0.431-1.577-0.285-0.302-0.691-0.451-1.215-0.451v0zM23.572 27.742c-0.297 0.235-0.669 0.425-1.12 0.561-0.45 0.139-0.927 0.209-1.431 0.209-0.564 0-1.052-0.093-1.468-0.275s-0.756-0.444-1.023-0.784c-0.267-0.341-0.466-0.747-0.594-1.222s-0.193-1.005-0.193-1.598c0-1.262 0.281-2.224 0.844-2.884 0.564-0.662 1.37-0.993 2.419-0.993 0.335 0 0.671 0.038 1.008 0.112 0.334 0.072 0.637 0.214 0.903 0.422 0.268 0.207 0.486 0.501 0.653 0.88 0.169 0.379 0.253 0.881 0.253 1.502 0 0.324-0.031 0.686-0.091 1.080h-4.759c0 0.434 0.045 0.82 0.133 1.154 0.089 0.335 0.229 0.619 0.416 0.85 0.187 0.233 0.432 0.41 0.735 0.532 0.301 0.124 0.668 0.186 1.104 0.186 0.336 0 0.671-0.059 1.009-0.177 0.336-0.118 0.587-0.257 0.756-0.414l0.445 0.858z"></path>
<path fill="#000" style="fill: var(--color3, #000)" d="M28.956 26.32c0-0.295-0.089-0.527-0.268-0.695-0.176-0.168-0.397-0.309-0.66-0.423-0.261-0.115-0.549-0.222-0.859-0.324-0.311-0.104-0.598-0.236-0.861-0.399-0.261-0.163-0.481-0.373-0.66-0.629-0.178-0.257-0.266-0.602-0.266-1.037 0-0.709 0.202-1.23 0.609-1.561 0.404-0.33 0.968-0.495 1.69-0.495 0.533 0 0.982 0.047 1.342 0.141s0.675 0.205 0.941 0.333l-0.282 0.976c-0.227-0.108-0.501-0.205-0.822-0.287-0.322-0.085-0.665-0.127-1.030-0.127-0.436 0-0.755 0.075-0.957 0.222-0.203 0.149-0.305 0.406-0.305 0.769 0 0.257 0.090 0.457 0.266 0.599 0.18 0.144 0.399 0.271 0.661 0.386 0.263 0.113 0.55 0.224 0.861 0.332 0.313 0.108 0.598 0.251 0.861 0.43 0.262 0.177 0.481 0.402 0.66 0.672 0.179 0.272 0.266 0.629 0.266 1.074 0 0.314-0.051 0.611-0.155 0.887s-0.265 0.513-0.482 0.711c-0.218 0.196-0.487 0.351-0.807 0.465-0.323 0.113-0.699 0.171-1.136 0.171-0.564 0-1.043-0.055-1.439-0.163-0.395-0.109-0.726-0.238-0.993-0.386l0.356-1.005c0.227 0.13 0.522 0.246 0.89 0.354 0.366 0.109 0.736 0.163 1.111 0.163 0.426 0 0.778-0.082 1.055-0.252 0.277-0.168 0.415-0.467 0.415-0.902z"></path>
<path fill="#000" style="fill: var(--color3, #000)" d="M35.199 26.32c0-0.295-0.088-0.527-0.266-0.695s-0.4-0.309-0.661-0.423c-0.261-0.115-0.55-0.222-0.859-0.324-0.313-0.104-0.599-0.236-0.86-0.399-0.263-0.163-0.482-0.373-0.66-0.629-0.18-0.257-0.268-0.602-0.268-1.037 0-0.709 0.202-1.23 0.607-1.561 0.406-0.33 0.969-0.495 1.691-0.495 0.534 0 0.981 0.047 1.342 0.141s0.676 0.205 0.942 0.333l-0.282 0.976c-0.228-0.108-0.502-0.205-0.824-0.287-0.322-0.085-0.665-0.127-1.030-0.127-0.436 0-0.755 0.075-0.957 0.222-0.203 0.149-0.304 0.406-0.304 0.769 0 0.257 0.089 0.457 0.266 0.599 0.177 0.144 0.398 0.271 0.661 0.386 0.261 0.113 0.549 0.224 0.859 0.332s0.599 0.251 0.861 0.43c0.262 0.177 0.483 0.402 0.66 0.672 0.178 0.272 0.266 0.629 0.266 1.074 0 0.314-0.051 0.611-0.155 0.887s-0.265 0.513-0.481 0.711c-0.219 0.196-0.487 0.351-0.809 0.465s-0.702 0.171-1.136 0.171c-0.562 0-1.043-0.055-1.439-0.163-0.395-0.109-0.726-0.238-0.993-0.386l0.357-1.005c0.227 0.13 0.523 0.246 0.889 0.354s0.736 0.163 1.112 0.163c0.425 0 0.775-0.082 1.052-0.252 0.277-0.168 0.416-0.467 0.416-0.902z"></path>
<path fill="#000" style="fill: var(--color3, #000)" d="M39.249 20.936v4.215c0 0.384 0.022 0.724 0.067 1.014 0.043 0.292 0.121 0.534 0.228 0.726 0.11 0.192 0.258 0.338 0.445 0.438 0.187 0.097 0.426 0.145 0.713 0.145 0.266 0 0.502-0.040 0.711-0.124 0.207-0.084 0.393-0.201 0.555-0.349s0.308-0.319 0.43-0.511c0.125-0.192 0.225-0.397 0.305-0.613v-4.941h1.186v5.295c0 0.355 0.012 0.723 0.039 1.102 0.024 0.381 0.067 0.714 0.125 1.001h-0.815l-0.296-1.169h-0.075c-0.227 0.384-0.533 0.706-0.921 0.962-0.383 0.257-0.874 0.386-1.467 0.386-0.397 0-0.744-0.047-1.046-0.141s-0.553-0.259-0.756-0.495c-0.202-0.238-0.356-0.556-0.459-0.955-0.105-0.4-0.155-0.904-0.155-1.516v-4.468h1.187z"></path>
<path fill="#000" style="fill: var(--color3, #000)" d="M50.934 28.333v-4.217c0-0.769-0.111-1.349-0.333-1.738s-0.63-0.585-1.223-0.585c-0.526 0-0.958 0.14-1.298 0.422-0.342 0.281-0.581 0.634-0.718 1.057v5.061h-1.186v-7.398h0.829l0.223 0.901h0.059c0.237-0.314 0.556-0.575 0.957-0.776 0.402-0.203 0.878-0.304 1.431-0.304 0.406 0 0.761 0.047 1.068 0.141s0.56 0.258 0.764 0.496c0.202 0.235 0.356 0.553 0.459 0.953 0.105 0.401 0.157 0.906 0.157 1.517v4.469h-1.187z"></path>
<path fill="#000" style="fill: var(--color3, #000)" d="M56.986 27.46c0.504 0 0.898-0.127 1.185-0.378s0.49-0.644 0.609-1.176v-3.788c-0.394-0.187-0.899-0.281-1.512-0.281-0.673 0-1.2 0.228-1.587 0.682-0.385 0.453-0.578 1.163-0.578 2.131 0 0.413 0.033 0.794 0.103 1.139s0.179 0.641 0.327 0.887c0.148 0.247 0.341 0.44 0.579 0.578 0.236 0.139 0.528 0.207 0.875 0.207v0zM59.966 28.673c0 0.957-0.254 1.662-0.763 2.116s-1.263 0.68-2.262 0.68c-0.595 0-1.072-0.035-1.433-0.109s-0.669-0.171-0.926-0.289l0.31-1.007c0.227 0.089 0.479 0.172 0.758 0.252 0.278 0.078 0.637 0.117 1.083 0.117 0.415 0 0.753-0.037 1.017-0.111 0.26-0.073 0.471-0.197 0.63-0.369 0.157-0.173 0.265-0.394 0.325-0.667 0.059-0.271 0.088-0.593 0.088-0.969v-0.711h-0.057c-0.199 0.287-0.452 0.508-0.758 0.659-0.306 0.153-0.707 0.229-1.202 0.229-0.998 0-1.731-0.311-2.201-0.932s-0.705-1.588-0.705-2.9c0-1.263 0.302-2.222 0.904-2.877 0.603-0.657 1.494-0.985 2.671-0.985 0.562 0 1.045 0.046 1.445 0.135s0.758 0.191 1.076 0.309v7.427z"></path>
<path fill="#fecc00" style="fill: var(--color6, #fecc00)" d="M79.155 21.174h1.161v7.579h-1.161z"></path>
<path fill="#cd1316" style="fill: var(--color7, #cd1316)" d="M75.091 21.174h1.161v7.579h-1.161v-7.579z"></path>
<path fill="#cd1316" style="fill: var(--color7, #cd1316)" d="M71.026 21.174h1.161v7.579h-1.161v-7.579z"></path>
<path fill="#000" style="fill: var(--color3, #000)" d="M66.962 21.174h1.161v7.579h-1.161v-7.579z"></path>
<path fill="#000" style="fill: var(--color3, #000)" d="M62.898 21.174h1.161v10.494h-1.161v-10.494z"></path>
<path fill="#fecc00" style="fill: var(--color6, #fecc00)" d="M82.954 21.019l6.582 3.817-6.582 3.816z"></path>
<path fill="#000" style="fill: var(--color3, #000)" d="M30.913 1.523c0-0.419 0.157-0.779 0.472-1.077s0.752-0.446 1.309-0.446c0.556 0 1.007 0.148 1.352 0.446s0.516 0.657 0.516 1.077c0 0.421-0.172 0.771-0.516 1.055s-0.796 0.425-1.352 0.425c-0.557 0-0.994-0.14-1.309-0.425s-0.472-0.634-0.472-1.055z"></path>
</svg>
